<svg preserveAspectRatio="xMidYMid meet" data-bbox="0 0.17 965.17 156.98" viewBox="0 0.17 965.17 156.98" xmlns="http://www.w3.org/2000/svg" data-type="color" role="presentation" aria-hidden="true">
    <g>
        <g>
            <path d="M226 15.87a15.59 15.59 0 1115.7 15.48A15.44 15.44 0 01226 15.87zm2.62 138.22V44.21h26.16v109.88z" fill="#FFFFFF" data-color="1"/>
            <path d="M277.86 154.09V44.21h25.94v15.7C308.38 49.23 319.49 42 333.45 42c15 0 25.28 6.33 30.73 19.19C370.51 48.36 382.5 42 400.16 42c24.19 0 38.15 16.79 38.15 44v68h-26.16V89.78c0-15-7.2-24.42-19.62-24.42-12.87 0-21.81 10.47-21.81 25.51v63.22h-25.94V89.78c0-15-7.19-24.42-19.62-24.42C313 65.36 303.8 76 303.8 90.87v63.22z" fill="#FFFFFF" data-color="1"/>
            <path d="M455.52 99.15c0-17.44 5.45-31.39 16.14-42.07 10.9-10.69 24.63-15.92 41.42-15.92 15.91 0 29 5.23 39 15.92 10.24 10.68 15.26 23.76 15.26 39.46 0 3.27-.22 6.32-.44 9.15h-85.43c.87 17.44 13.73 28.78 33.13 28.78 11.34 0 21.15-4.14 29.65-12.65L560 137.08c-12.43 13.08-27.69 19.62-46.22 19.62-17.22 0-31.39-5.23-42.07-15.47s-16.14-24-16.14-41.21zm85.24-11.77c0-6.54-2.83-12.21-8.28-16.79a28.16 28.16 0 00-19.4-7.19 33.84 33.84 0 00-21.15 7q-8.83 6.87-9.81 17z" fill="#FFFFFF" data-color="1"/>
            <path d="M670 60.13v-58h26.2v152H670v-15.96c-3.71 10.69-17 18.32-35.1 18.32q-23.22 0-39.24-16.35C585.23 129 580 115.5 580 99.15s5.23-29.86 15.7-40.77c10.68-11.11 23.76-16.56 39.24-16.56 18.06 0 31.39 7.63 35.06 18.31zm-7.85 63c6.54-6.32 9.81-14.39 9.81-24s-3.27-17.66-9.81-24a32.56 32.56 0 00-23.76-9.59 31.57 31.57 0 00-23.33 9.59c-6.11 6.32-9.16 14.39-9.16 24s3 17.66 9.16 24a31.57 31.57 0 0023.33 9.59 32.56 32.56 0 0023.8-9.59z" fill="#FFFFFF" data-color="1"/>
            <path d="M716.47 15.87a15.59 15.59 0 1115.69 15.48 15.44 15.44 0 01-15.69-15.48zm2.61 138.22V44.21h26.16v109.88z" fill="#FFFFFF" data-color="1"/>
            <path d="M867.33 59.69l-16.14 16.79a36.94 36.94 0 00-27.9-12 32.89 32.89 0 00-24.2 9.81c-6.32 6.54-9.59 14.82-9.59 24.63s3.27 18.1 9.59 24.64a32.89 32.89 0 0024.2 9.81 37 37 0 0027.9-12l16.14 16.78c-11.78 12.65-26.38 19-44 19-16.79 0-31-5.45-42.51-16.57s-17.22-25.07-17.22-41.64 5.66-30.3 17.22-41.42 25.72-16.78 42.51-16.78c17.67-.01 32.22 6.31 44 18.95z" fill="#FFFFFF" data-color="1"/>
            <path d="M891.52 120.52c5 7.84 15.7 13.73 29 13.73 13.73 0 19.62-5.23 19.62-12 0-3.71-2.62-6.76-6.33-8.72-2.4-1.53-7-3.05-10.24-4.14s-9.81-3.05-13.52-4.58c-17.66-6.32-27-15.26-27-31 0-10.24 3.7-18.09 11.12-24 7.63-5.88 16.78-8.94 27.68-8.94 15.48 0 27.25 5.45 35.54 16.14l-14.64 15.55c-4.8-6.11-12-9.16-21.36-9.16-8.07 0-13.3 3.92-13.3 9.81 0 3.7 2 5.67 5 7.63a72.9 72.9 0 008.91 3.92c3.27.88 9.37 3.06 13.74 4.58 20.27 7.2 29.43 17 29.43 32.7 0 20.28-15.26 34.88-45.13 34.88-22 0-38.37-8.5-45.35-22.23z" fill="#FFFFFF" data-color="1"/>
            <path d="M209.93 154.09h-29.22a1.08 1.08 0 01-.86-.44l-46.22-64.12a1.06 1.06 0 00-1.65-.09l-18.31 20.18V75l64-72.45a1 1 0 01.79-.36h29.44a1.06 1.06 0 01.8 1.76l-57 64.53a1.07 1.07 0 00-.07 1.32l59.13 82.66a1.06 1.06 0 01-.83 1.63z" fill="#FFFFFF" data-color="1"/>
            <path d="M89.67 4.09v150h24v-150z" fill="#FFFFFF" data-color="1"/>
            <path d="M58 48.5v105.59h18V48.5z" fill="#009ade" data-color="2"/>
            <path d="M28 101.29v52.8h18v-52.8z" fill="#3bd4ae" data-color="3"/>
            <path d="M0 81.28v72.81h18V81.28z" fill="#f0df00" data-color="4"/>
        </g>
    </g>
</svg>
